# xmcd CD database file
#
# Track frame offsets:
#	182
#	13990
#	28155
#	40276
#	55530
#	69871
#	84596
#	100467
#	114959
#	128584
#	143546
#	157578
#	166520
#	181133
#	193812
#	208968
#	220486
#	234805
#	249622
#	260046
#	275029
#	287272
#	302264
#
# Disc length: 4218 seconds
#
# Revision: 0
# Processed by: cddbd v1.5PL3 Copyright (c) Steve Scherf et al.
# Submitted via: CDex 1.50
#
DISCID=36107817
DTITLE=Ella Fitzgerald - 1951
DYEAR=2002
DGENRE=Jazz
TTITLE0=Lonesome Gal
TTITLE1=The Bean Bag Song
TTITLE2=The Cheasapeake and Ohio
TTITLE3=Two Little Men in a Flying Saucer
TTITLE4=Because of Rain
TTITLE5=The Hot Canary
TTITLE6=Even as You and I
TTITLE7=Do You Really Love Me?
TTITLE8=Love You Madly
TTITLE9=Mixed Emotions
TTITLE10=Smooth Sailing
TTITLE11=Come On-A My House
TTITLE12=I Don't Want to Take a Chance
TTITLE13=There Never Was a Baby
TTITLE14=Give a Little, Get a Little
TTITLE15=Necessary Evil
TTITLE16=Oops!
TTITLE17=Would You Like to Take a Walk
TTITLE18=Who Walks In When I Walk Out?
TTITLE19=Baby Doll
TTITLE20=What Does It Take?
TTITLE21=Lady Bug
TTITLE22=Lazy Day
EXTD=YEAR: 2002
EXTT0=
EXTT1=
EXTT2=
EXTT3=
EXTT4=
EXTT5=
EXTT6=
EXTT7=
EXTT8=
EXTT9=
EXTT10=
EXTT11=
EXTT12=
EXTT13=
EXTT14=
EXTT15=
EXTT16=
EXTT17=
EXTT18=
EXTT19=
EXTT20=
EXTT21=
EXTT22=
PLAYORDER=
